<svg preserveAspectRatio="none" overflow="visible" style="display: block;" width="7.30004" height="5.33413" viewBox="0 0 7.30004 5.33413" fill="none" xmlns="http://www.w3.org/2000/svg">
<path id="Vector" d="M7.17581 0.71929L2.68481 5.21029C2.64569 5.24954 2.59921 5.28069 2.54803 5.30194C2.49686 5.32319 2.44199 5.33413 2.38657 5.33413C2.33116 5.33413 2.27629 5.32319 2.22512 5.30194C2.17394 5.28069 2.12746 5.24954 2.08834 5.21029L0.123531 3.24548C0.0843669 3.20631 0.0533002 3.15982 0.0321047 3.10865C0.0109092 3.05748 5.83592e-10 3.00263 0 2.94725C-5.83592e-10 2.89186 0.0109092 2.83702 0.0321047 2.78585C0.0533002 2.73468 0.0843669 2.68818 0.123531 2.64902C0.162695 2.60985 0.20919 2.57879 0.26036 2.55759C0.311531 2.5364 0.366375 2.52549 0.421762 2.52549C0.477148 2.52549 0.531992 2.5364 0.583163 2.55759C0.634333 2.57879 0.680828 2.60985 0.719992 2.64902L2.38693 4.31595L6.58005 0.123531C6.65914 0.0444354 6.76642 0 6.87828 0C6.99014 0 7.09741 0.0444354 7.17651 0.123531C7.2556 0.202627 7.30004 0.309904 7.30004 0.421762C7.30004 0.53362 7.2556 0.640897 7.17651 0.719992L7.17581 0.71929Z" fill="white"/>
</svg>
