<svg width="134" height="37" viewBox="0 0 134 37" fill="none" xmlns="http://www.w3.org/2000/svg">
<g clip-path="url(#clip0_414_28051)">
<path d="M45.1875 10.5938H48.1745L55.1737 21.3891V10.5938H58.2869V26.9969H55.2918L48.299 16.2359V26.9969H45.1875V10.5938Z" fill="white"/>
<path d="M69.7106 14.8615H72.7464V26.9938H69.7106V25.71C69.1174 26.2757 68.523 26.6828 67.9276 26.9313C67.3131 27.1835 66.6547 27.3101 65.9909 27.3037C64.4291 27.3037 63.0777 26.696 61.9367 25.4807C60.7958 24.2654 60.2258 22.7544 60.2266 20.9478C60.2266 19.0739 60.7782 17.5386 61.8815 16.342C62.9848 15.1453 64.3251 14.547 65.9025 14.547C66.6048 14.5421 67.3005 14.6826 67.9462 14.9595C68.6095 15.253 69.2094 15.6734 69.7122 16.1972L69.7106 14.8615ZM66.5187 17.3591C65.5807 17.3591 64.8013 17.6919 64.1806 18.3575C63.5599 19.0231 63.2496 19.876 63.2496 20.9163C63.2496 21.9643 63.5654 22.8268 64.1969 23.5037C64.8285 24.1806 65.6061 24.5188 66.5297 24.5185C67.483 24.5185 68.2735 24.1856 68.9017 23.52C69.5298 22.8544 69.8438 21.9828 69.8438 20.9052C69.8438 19.8494 69.5298 18.9935 68.9017 18.3376C68.2735 17.6817 67.4793 17.3556 66.5187 17.3591Z" fill="white"/>
<path d="M74.0625 14.8594H77.1553L80.2115 22.0182L83.2619 14.8594H86.3391L81.1903 26.9917H79.2223L74.0625 14.8594Z" fill="white"/>
<path d="M96.1337 14.867H99.169V26.9993H96.1337V25.7155C95.5405 26.2811 94.9461 26.6882 94.3507 26.9368C93.7348 27.1895 93.0748 27.3161 92.4094 27.3091C90.8472 27.3091 89.4958 26.7015 88.3552 25.4862C87.2147 24.2709 86.6458 22.7607 86.6484 20.9556C86.6484 19.0817 87.2001 17.5464 88.3034 16.3498C89.4068 15.1531 90.7471 14.5548 92.3245 14.5548C93.0266 14.5499 93.7221 14.6904 94.3675 14.9674C95.031 15.2608 95.6308 15.6812 96.1337 16.205V14.867ZM92.9419 17.3645C92.0039 17.3645 91.2244 17.6973 90.6038 18.363C89.983 19.0286 89.6727 19.8815 89.6727 20.9218C89.6727 21.9698 89.9885 22.8323 90.62 23.5092C91.2516 24.186 92.0292 24.5243 92.9529 24.5239C93.9061 24.5239 94.6967 24.1911 95.3248 23.5255C95.9529 22.8599 96.2669 21.9883 96.2669 20.9107C96.2669 19.8549 95.9529 18.999 95.3248 18.3431C94.6967 17.6872 93.9028 17.361 92.9419 17.3645Z" fill="white"/>
<path d="M101.781 14.8669H104.817V16.1098C105.505 15.5263 106.129 15.1215 106.688 14.8955C107.232 14.6712 107.815 14.5555 108.403 14.5547C109.603 14.5547 110.621 14.9746 111.457 15.8145C112.16 16.5284 112.512 17.584 112.512 18.9814V26.9992H109.51V21.6861C109.51 20.2381 109.445 19.2766 109.315 18.8016C109.186 18.3267 108.96 17.9645 108.639 17.7151C108.317 17.4665 107.919 17.3422 107.446 17.3422C106.859 17.332 106.291 17.554 105.865 17.9602C105.425 18.3726 105.12 18.9427 104.95 19.6705C104.861 20.0491 104.817 20.8695 104.817 22.1319V26.9992H101.781V14.8669Z" fill="white"/>
<path d="M115.354 10.3906H118.39V14.8623H120.194V17.4829H118.39V26.9946H115.354V17.4829H113.797V14.8623H115.354V10.3906Z" fill="white"/>
<path d="M130.29 14.8604H133.326V26.9927H130.29V25.7088C129.697 26.2745 129.103 26.6816 128.508 26.9302C127.893 27.183 127.234 27.3099 126.569 27.3036C125.007 27.3036 123.655 26.696 122.515 25.4807C121.375 24.2654 120.805 22.7544 120.805 20.9478C120.805 19.0739 121.356 17.5386 122.46 16.342C123.563 15.1453 124.903 14.547 126.481 14.547C127.183 14.542 127.878 14.6825 128.524 14.9596C129.187 15.253 129.787 15.6734 130.29 16.1972V14.8604ZM127.099 17.3579C126.161 17.3579 125.381 17.6907 124.761 18.3563C124.14 19.0219 123.83 19.8749 123.83 20.9151C123.83 21.9631 124.145 22.8256 124.777 23.5025C125.408 24.1794 126.186 24.5176 127.11 24.5173C128.063 24.5173 128.853 24.1845 129.482 23.5189C130.11 22.8532 130.424 21.9817 130.424 20.904C130.424 19.8482 130.11 18.9924 129.482 18.3365C128.853 17.6806 128.059 17.3544 127.099 17.3579Z" fill="white"/>
<path d="M47.4883 35.1766H45.0547V30.5703H47.3858V31.0588H45.5925V32.5898H47.2502V33.08H45.5913V34.6916H47.4871L47.4883 35.1766Z" fill="white"/>
<path d="M51.0246 35.1817H50.5008V33.307C50.5008 32.6089 50.2468 32.2601 49.7389 32.2604C49.6147 32.2579 49.4915 32.2836 49.3785 32.3354C49.2656 32.3872 49.1657 32.464 49.0864 32.5599C48.9104 32.7688 48.8184 33.036 48.8285 33.3093V35.1841H48.3047V31.8945H48.8285V32.4431H48.8413C49.0889 32.0275 49.4475 31.82 49.917 31.8203C50.2755 31.8203 50.5499 31.937 50.74 32.1705C50.9302 32.404 51.025 32.7395 51.0246 33.1768V35.1817Z" fill="white"/>
<path d="M54.3558 35.1827H53.8319V34.6689H53.8191C53.5906 35.0631 53.2543 35.26 52.8104 35.2597C52.4841 35.2597 52.2285 35.1731 52.0438 34.9999C51.8591 34.8268 51.7664 34.5974 51.7656 34.3118C51.7656 33.6978 52.1263 33.3403 52.8477 33.2395L53.8308 33.1013C53.8308 32.5425 53.6055 32.2633 53.155 32.2637C52.7613 32.2633 52.381 32.4071 52.0858 32.6682V32.1289C52.4195 31.9202 52.8065 31.8132 53.1998 31.8207C53.9705 31.8207 54.3558 32.2292 54.3558 33.0464V35.1827ZM53.8319 33.5197L53.0409 33.6289C52.7976 33.6631 52.6141 33.7236 52.4903 33.8104C52.3665 33.8972 52.3046 34.0507 52.3046 34.2709C52.3024 34.3451 52.3165 34.4189 52.3461 34.4869C52.3757 34.5549 52.42 34.6155 52.4757 34.6643C52.6035 34.7706 52.7663 34.825 52.9321 34.8167C53.0529 34.82 53.173 34.7972 53.2843 34.7499C53.3956 34.7025 53.4954 34.6318 53.577 34.5423C53.7494 34.3522 53.8405 34.1017 53.8308 33.8449L53.8319 33.5197Z" fill="white"/>
<path d="M55.8803 34.7036H55.8675V35.1786H55.3438V30.3125H55.8675V32.4717H55.8803C56.1386 32.0351 56.5165 31.8169 57.0139 31.8169C57.434 31.8169 57.7638 31.964 58.0031 32.2581C58.2425 32.5521 58.3615 32.9464 58.3604 33.4409C58.3604 33.9906 58.2269 34.4307 57.96 34.7614C57.6931 35.0921 57.3283 35.2574 56.8654 35.2574C56.4309 35.2563 56.1026 35.0717 55.8803 34.7036ZM55.8675 33.3778V33.8371C55.8617 34.0934 55.9566 34.3417 56.1317 34.5286C56.2258 34.6251 56.3394 34.7003 56.4649 34.749C56.5904 34.7978 56.7249 34.819 56.8592 34.8112C56.9937 34.8035 57.1248 34.7669 57.2439 34.7041C57.3631 34.6412 57.4673 34.5536 57.5498 34.4469C57.7301 34.2029 57.8203 33.8637 57.8203 33.4292C57.8203 33.0631 57.736 32.7764 57.5672 32.5691C57.4852 32.4673 57.3805 32.3863 57.2615 32.3322C57.1426 32.2782 57.0127 32.2528 56.8823 32.2581C56.7436 32.2528 56.6056 32.2789 56.4783 32.3341C56.3509 32.3893 56.2374 32.4724 56.1462 32.5772C55.9569 32.7999 55.8575 33.0855 55.8675 33.3778Z" fill="white"/>
<path d="M59.7268 35.1786H59.2031V30.3125H59.7268V35.1786Z" fill="white"/>
<path d="M61.0582 31.0592C61.0139 31.06 60.9698 31.0519 60.9286 31.0354C60.8874 31.0189 60.85 30.9942 60.8185 30.9629C60.7858 30.9315 60.7601 30.8935 60.7429 30.8514C60.7257 30.8094 60.7175 30.7642 60.7189 30.7189C60.7181 30.6739 60.7263 30.6291 60.743 30.5872C60.7599 30.5453 60.7848 30.5073 60.8163 30.4753C60.848 30.4433 60.8857 30.4179 60.9272 30.4007C60.9687 30.3835 61.0133 30.3747 61.0582 30.3751C61.1035 30.3742 61.1486 30.3825 61.1906 30.3993C61.2327 30.4161 61.271 30.4412 61.3033 30.4732C61.3352 30.505 61.3605 30.543 61.3778 30.5846C61.395 30.6264 61.4039 30.671 61.4039 30.7163C61.4039 30.7614 61.395 30.8062 61.3778 30.8478C61.3605 30.8896 61.3352 30.9275 61.3033 30.9594C61.2712 30.9917 61.2331 31.0173 61.191 31.0344C61.1489 31.0515 61.1037 31.06 61.0582 31.0592ZM61.3143 35.1811H60.7905V31.8938H61.3143V35.1811Z" fill="white"/>
<path d="M65.0943 35.1817H64.5705V33.307C64.5705 32.6089 64.3165 32.2601 63.8086 32.2604C63.6846 32.2577 63.5617 32.2831 63.4488 32.3345C63.336 32.3859 63.2361 32.4621 63.1567 32.5575C62.9809 32.7665 62.889 33.0338 62.8988 33.307V35.1817H62.375V31.8945H62.8988V32.4431H62.9116C63.1596 32.0275 63.5183 31.82 63.9878 31.8203C64.3464 31.8203 64.6205 31.937 64.8103 32.1705C65 32.404 65.0951 32.7395 65.0955 33.1768L65.0943 35.1817Z" fill="white"/>
<path d="M68.8813 34.9151C68.8813 36.121 68.305 36.7241 67.1524 36.7241C66.7848 36.7317 66.4207 36.6517 66.0899 36.4907V35.9655C66.4592 36.1709 66.8113 36.2735 67.146 36.2735C67.953 36.2735 68.3564 35.8435 68.3564 34.9834V34.624H68.3436C68.0941 35.0433 67.7184 35.2529 67.2164 35.2529C66.809 35.2529 66.481 35.1069 66.2324 34.8147C65.9837 34.5226 65.8594 34.1304 65.8594 33.6384C65.8594 33.0796 65.9935 32.6358 66.2615 32.3067C66.5296 31.9776 66.896 31.8128 67.3608 31.8125C67.8026 31.8125 68.1302 31.99 68.3436 32.3452H68.3564V31.8918H68.8801L68.8813 34.9151ZM68.3576 33.6896V33.2053C68.3596 33.0816 68.3374 32.9586 68.2921 32.8434C68.2467 32.7283 68.1792 32.6233 68.0933 32.5343C68.0097 32.4437 67.9078 32.3721 67.7945 32.324C67.6811 32.276 67.5589 32.2525 67.4359 32.2553C67.1111 32.2553 66.857 32.3736 66.6735 32.6101C66.49 32.8467 66.3982 33.1774 66.3982 33.6021C66.3982 33.9678 66.4863 34.2596 66.6625 34.4774C66.7449 34.5835 66.851 34.6685 66.9724 34.7257C67.0937 34.7829 67.2267 34.8106 67.3608 34.8065C67.4964 34.8109 67.6311 34.7849 67.7555 34.7305C67.8797 34.6761 67.9904 34.5947 68.0794 34.492C68.2641 34.2866 68.3564 34.02 68.3564 33.692L68.3576 33.6896Z" fill="white"/>
<path d="M72.3504 35.1766H71.8125V30.5703H72.3504V35.1766Z" fill="white"/>
<path d="M76.2037 35.1817H75.6798V33.307C75.6798 32.6089 75.4259 32.2601 74.9179 32.2604C74.794 32.2578 74.6711 32.2832 74.5583 32.3346C74.4455 32.386 74.3456 32.4622 74.266 32.5575C74.0903 32.7665 73.9983 33.0338 74.0082 33.307V35.1817H73.4844V31.8945H74.0082V32.4431H74.021C74.2689 32.0275 74.6277 31.82 75.0972 31.8203C75.4558 31.8203 75.7299 31.937 75.9197 32.1705C76.1094 32.404 76.2045 32.7395 76.2049 33.1768L76.2037 35.1817Z" fill="white"/>
<path d="M78.7113 35.15C78.5592 35.2247 78.3909 35.2599 78.2218 35.2527C77.6474 35.2527 77.3603 34.9317 77.3603 34.2897V32.3443H76.7969V31.8949H77.3603V31.0923L77.8842 30.9219V31.8949H78.71V32.3443H77.8842V34.1945C77.8842 34.4145 77.9214 34.5721 77.9965 34.6662C78.0716 34.7601 78.195 34.8074 78.3678 34.8074C78.4909 34.8104 78.6114 34.772 78.71 34.6983L78.7113 35.15Z" fill="white"/>
<path d="M82.0527 33.6629H79.7378C79.746 34.0287 79.8441 34.3113 80.0323 34.511C80.2205 34.7106 80.4787 34.81 80.807 34.8092C81.1783 34.8085 81.5378 34.6792 81.825 34.4433V34.9377C81.5371 35.1474 81.1561 35.2523 80.6819 35.2523C80.219 35.2523 79.8552 35.103 79.5905 34.8045C79.3259 34.5061 79.1941 34.0866 79.1953 33.5462C79.1953 33.0349 79.3399 32.6182 79.6289 32.2959C79.7623 32.1411 79.9278 32.0176 80.114 31.934C80.3001 31.8505 80.5024 31.8091 80.7063 31.8127C81.1355 31.8127 81.4674 31.9518 81.7022 32.23C81.9369 32.5083 82.0533 32.8944 82.0514 33.3886L82.0527 33.6629ZM81.5148 33.217C81.5124 32.9127 81.4394 32.6761 81.2954 32.5073C81.1514 32.3383 80.9511 32.2539 80.6947 32.2539C80.5769 32.252 80.4601 32.2746 80.3515 32.3205C80.243 32.3663 80.1452 32.4343 80.0643 32.5201C79.8849 32.7113 79.7725 32.956 79.7442 33.217H81.5148Z" fill="white"/>
<path d="M83.3675 35.1786H82.8438V30.3125H83.3675V35.1786Z" fill="white"/>
<path d="M84.9612 35.1786H84.4375V30.3125H84.9612V35.1786Z" fill="white"/>
<path d="M86.2848 31.0592C86.2404 31.06 86.1963 31.0519 86.1551 31.0354C86.1139 31.0189 86.0764 30.9942 86.045 30.9629C86.0124 30.9315 85.9865 30.8935 85.9695 30.8514C85.9523 30.8094 85.9441 30.7642 85.9455 30.7189C85.9447 30.6739 85.9529 30.6291 85.9696 30.5872C85.9863 30.5453 86.0112 30.5073 86.0429 30.4753C86.0745 30.4433 86.1122 30.4179 86.1538 30.4007C86.1953 30.3835 86.2399 30.3747 86.2848 30.3751C86.3301 30.3742 86.3751 30.3825 86.4172 30.3993C86.4593 30.4161 86.4976 30.4412 86.5298 30.4732C86.5618 30.505 86.587 30.543 86.6043 30.5846C86.6216 30.6264 86.6305 30.671 86.6305 30.7163C86.6305 30.7614 86.6216 30.8062 86.6043 30.8478C86.587 30.8896 86.5618 30.9275 86.5298 30.9594C86.4978 30.9917 86.4596 31.0173 86.4175 31.0344C86.3753 31.0515 86.3302 31.06 86.2848 31.0592ZM86.5409 35.1811H86.0171V31.8938H86.5409V35.1811Z" fill="white"/>
<path d="M90.4047 34.9151C90.4047 36.121 89.8286 36.7241 88.6764 36.7241C88.3086 36.7318 87.9442 36.6518 87.6133 36.4907V35.9655C87.9829 36.1709 88.3353 36.2735 88.67 36.2735C89.4765 36.2735 89.8798 35.8435 89.8798 34.9834V34.624H89.867C89.6176 35.0433 89.2421 35.2529 88.7404 35.2529C88.3324 35.2529 88.0041 35.1069 87.7558 34.8147C87.5076 34.5226 87.3833 34.1304 87.3828 33.6384C87.3828 33.0796 87.5169 32.6358 87.7849 32.3067C88.053 31.9776 88.4194 31.8128 88.8841 31.8125C89.3257 31.8125 89.6532 31.99 89.867 32.3452H89.8798V31.8918H90.4035L90.4047 34.9151ZM89.881 33.6897V33.2053C89.8831 33.0816 89.8608 32.9586 89.8155 32.8434C89.7702 32.7283 89.7026 32.6233 89.6168 32.5343C89.5332 32.4437 89.4313 32.3721 89.3178 32.324C89.2045 32.276 89.0823 32.2525 88.9592 32.2553C88.6346 32.2553 88.3804 32.3736 88.1969 32.6101C88.0135 32.8467 87.9217 33.1774 87.9217 33.6021C87.9217 33.9678 88.0098 34.2596 88.1858 34.4774C88.2683 34.5835 88.3744 34.6685 88.4957 34.7257C88.6172 34.7829 88.7501 34.8106 88.8841 34.8065C89.0197 34.8109 89.1546 34.7849 89.2788 34.7305C89.4031 34.6761 89.5138 34.5947 89.6029 34.492C89.7874 34.2866 89.8798 34.02 89.8798 33.692L89.881 33.6897Z" fill="white"/>
<path d="M94.1012 33.6629H91.7865C91.7953 34.0287 91.8935 34.3113 92.081 34.511C92.2684 34.7106 92.5266 34.81 92.8557 34.8092C93.227 34.8087 93.5866 34.6794 93.8737 34.4433V34.9377C93.5854 35.1474 93.2045 35.2523 92.7311 35.2523C92.2677 35.2523 91.9037 35.103 91.6392 34.8045C91.3745 34.5061 91.2422 34.0866 91.2422 33.5462C91.2422 33.0349 91.3868 32.6182 91.6758 32.2959C91.8091 32.1411 91.9747 32.0176 92.1609 31.934C92.3471 31.8505 92.5493 31.8091 92.7532 31.8127C93.182 31.8127 93.514 31.9518 93.7491 32.23C93.9843 32.5083 94.1007 32.8944 94.0983 33.3886L94.1012 33.6629ZM93.5635 33.217C93.5611 32.9127 93.4879 32.6761 93.344 32.5073C93.2 32.3383 93 32.2539 92.7439 32.2539C92.626 32.2519 92.5091 32.2746 92.4005 32.3204C92.2919 32.3662 92.1939 32.4342 92.113 32.5201C91.9337 32.7114 91.8214 32.956 91.7928 33.217H93.5635Z" fill="white"/>
<path d="M97.6172 35.1817H97.0933V33.307C97.0933 32.6089 96.8394 32.2601 96.3314 32.2604C96.2076 32.2578 96.0848 32.2832 95.972 32.3346C95.8593 32.386 95.7596 32.4622 95.6801 32.5575C95.5043 32.7665 95.4124 33.0338 95.4223 33.307V35.1817H94.8984V31.8945H95.4223V32.4431H95.4351C95.6827 32.0275 96.0412 31.82 96.5107 31.8203C96.8693 31.8203 97.1436 31.937 97.3338 32.1705C97.5239 32.404 97.6187 32.7395 97.6184 33.1768L97.6172 35.1817Z" fill="white"/>
<path d="M100.126 35.15C99.9737 35.2247 99.8052 35.2599 99.6359 35.2527C99.062 35.2527 98.7747 34.9317 98.7744 34.2897V32.3443H98.2109V31.8949H98.7744V31.0923L99.2982 30.9219V31.8949H100.124V32.3443H99.2982V34.1945C99.2982 34.4145 99.3355 34.5721 99.41 34.6662C99.4846 34.7601 99.6085 34.8074 99.7813 34.8074C99.9046 34.8104 100.025 34.772 100.124 34.6983L100.126 35.15Z" fill="white"/>
<path d="M105.12 35.1766H102.688V30.5703H105.016V31.0588H103.226V32.5898H104.884V33.08H103.226V34.6916H105.121L105.12 35.1766Z" fill="white"/>
<path d="M108.656 35.1817H108.132V33.307C108.132 32.6089 107.878 32.2601 107.37 32.2604C107.246 32.2583 107.123 32.2841 107.01 32.3358C106.898 32.3877 106.798 32.4642 106.719 32.5599C106.543 32.769 106.451 33.0361 106.461 33.3093V35.1841H105.938V31.8945H106.461V32.4431H106.474C106.722 32.0275 107.08 31.82 107.55 31.8203C107.908 31.8203 108.182 31.937 108.372 32.1705C108.562 32.404 108.657 32.7395 108.657 33.1768L108.656 35.1817Z" fill="white"/>
<path d="M111.164 35.15C111.012 35.2247 110.844 35.26 110.675 35.2527C110.1 35.2527 109.813 34.9317 109.813 34.2897V32.3443H109.25V31.8949H109.813V31.0923L110.337 30.9219V31.8949H111.163V32.3443H110.337V34.1945C110.337 34.4145 110.375 34.5721 110.45 34.6662C110.525 34.7601 110.648 34.8074 110.821 34.8074C110.944 34.8104 111.065 34.772 111.163 34.6983L111.164 35.15Z" fill="white"/>
<path d="M114.5 33.6629H112.188C112.196 34.0287 112.294 34.3113 112.482 34.511C112.67 34.7106 112.928 34.81 113.257 34.8092C113.628 34.8085 113.988 34.6792 114.275 34.4433V34.9377C113.987 35.1474 113.606 35.2523 113.132 35.2523C112.669 35.2523 112.305 35.103 112.04 34.8045C111.776 34.5061 111.643 34.0866 111.641 33.5462C111.641 33.0349 111.785 32.6182 112.074 32.2959C112.207 32.1411 112.373 32.0176 112.559 31.934C112.745 31.8505 112.948 31.8091 113.152 31.8127C113.581 31.8127 113.913 31.9518 114.148 32.23C114.382 32.5083 114.499 32.8944 114.497 33.3886L114.5 33.6629ZM113.962 33.217C113.96 32.9127 113.886 32.6761 113.742 32.5073C113.598 32.3383 113.398 32.2539 113.142 32.2539C113.024 32.2519 112.908 32.2746 112.799 32.3204C112.69 32.3662 112.592 32.4342 112.511 32.5201C112.332 32.7114 112.22 32.956 112.191 33.217H113.962Z" fill="white"/>
<path d="M117.005 32.4275C116.913 32.3566 116.781 32.3213 116.608 32.3213C116.384 32.3213 116.197 32.4274 116.047 32.6394C115.896 32.8514 115.821 33.1403 115.821 33.5061V35.1819H115.297V31.8946H115.821V32.5717H115.834C115.894 32.3625 116.013 32.1749 116.176 32.0312C116.319 31.9058 116.502 31.8367 116.691 31.8368C116.798 31.8319 116.904 31.8472 117.005 31.8817V32.4275Z" fill="white"/>
<path d="M118.115 34.7011H118.102V36.688H117.578V31.8896H118.102V32.4673H118.115C118.373 32.0308 118.751 31.8125 119.248 31.8125C119.67 31.8125 120 31.9596 120.237 32.2537C120.474 32.5477 120.592 32.9421 120.592 33.4365C120.592 33.9862 120.459 34.4263 120.192 34.757C119.925 35.0877 119.56 35.253 119.097 35.253C118.673 35.253 118.345 35.069 118.115 34.7011ZM118.102 33.3752V33.8345C118.096 34.0908 118.191 34.3393 118.366 34.526C118.46 34.6225 118.574 34.6976 118.699 34.7464C118.825 34.7951 118.959 34.8163 119.094 34.8086C119.228 34.8008 119.359 34.7643 119.478 34.7015C119.597 34.6387 119.702 34.5509 119.784 34.4443C119.964 34.2003 120.055 33.8611 120.054 33.4266C120.054 33.0606 119.97 32.7739 119.802 32.5665C119.72 32.4647 119.615 32.3836 119.496 32.3296C119.377 32.2756 119.247 32.2501 119.117 32.2554C118.978 32.2503 118.84 32.2763 118.713 32.3315C118.585 32.3867 118.472 32.4697 118.381 32.5747C118.191 32.7973 118.092 33.0828 118.102 33.3752Z" fill="white"/>
<path d="M123.138 32.4275C123.046 32.3566 122.914 32.3213 122.741 32.3213C122.517 32.3213 122.33 32.4274 122.179 32.6394C122.029 32.8514 121.954 33.1403 121.954 33.5061V35.1819H121.43V31.8946H121.954V32.5717H121.966C122.027 32.3625 122.146 32.1749 122.309 32.0312C122.451 31.9058 122.635 31.8367 122.824 31.8368C122.931 31.8319 123.037 31.8472 123.138 31.8817V32.4275Z" fill="white"/>
<path d="M123.98 31.0592C123.936 31.06 123.892 31.0519 123.85 31.0354C123.809 31.0189 123.772 30.9942 123.74 30.9629C123.708 30.9315 123.682 30.8935 123.665 30.8514C123.648 30.8094 123.639 30.7642 123.641 30.7189C123.64 30.6739 123.648 30.6291 123.665 30.5872C123.682 30.5453 123.707 30.5073 123.738 30.4753C123.77 30.4433 123.807 30.4179 123.849 30.4007C123.891 30.3835 123.935 30.3747 123.98 30.3751C124.025 30.3742 124.07 30.3825 124.113 30.3993C124.155 30.4161 124.193 30.4412 124.225 30.4732C124.257 30.505 124.282 30.543 124.3 30.5846C124.317 30.6264 124.326 30.671 124.326 30.7163C124.326 30.7614 124.317 30.8062 124.3 30.8478C124.282 30.8896 124.257 30.9275 124.225 30.9594C124.193 30.9917 124.155 31.0173 124.113 31.0344C124.071 31.0515 124.026 31.06 123.98 31.0592ZM124.236 35.1811H123.712V31.8938H124.236V35.1811Z" fill="white"/>
<path d="M125.094 35.0628V34.4979C125.365 34.7048 125.697 34.8163 126.038 34.8153C126.499 34.8153 126.73 34.6613 126.73 34.3531C126.733 34.2747 126.713 34.1971 126.672 34.1302C126.629 34.0661 126.575 34.011 126.512 33.9679C126.438 33.917 126.358 33.8745 126.275 33.8413C126.184 33.8039 126.087 33.7648 125.984 33.7245C125.853 33.6735 125.725 33.615 125.601 33.5494C125.5 33.4973 125.407 33.4302 125.325 33.3504C125.253 33.2786 125.197 33.1928 125.159 33.0983C125.119 32.9927 125.099 32.8807 125.101 32.7679C125.098 32.6245 125.135 32.4833 125.207 32.3593C125.277 32.2401 125.374 32.1379 125.488 32.0605C125.611 31.9779 125.747 31.9166 125.89 31.879C126.042 31.8392 126.199 31.8196 126.356 31.8206C126.617 31.816 126.877 31.8663 127.118 31.9682V32.5011C126.87 32.3406 126.58 32.2579 126.285 32.2636C126.196 32.2624 126.106 32.2738 126.02 32.2974C125.947 32.3166 125.878 32.3487 125.817 32.392C125.762 32.4297 125.717 32.4797 125.685 32.5379C125.654 32.5955 125.638 32.6603 125.639 32.7258C125.636 32.8003 125.652 32.874 125.685 32.9407C125.719 33.0015 125.765 33.054 125.821 33.0948C125.889 33.1442 125.962 33.1851 126.039 33.2167C126.125 33.2535 126.221 33.2932 126.33 33.3334C126.463 33.3836 126.594 33.4408 126.721 33.505C126.827 33.5581 126.926 33.625 127.015 33.704C127.094 33.7756 127.158 33.8628 127.202 33.9603C127.248 34.0689 127.27 34.1861 127.268 34.3041C127.271 34.4526 127.234 34.5992 127.161 34.7278C127.089 34.848 126.991 34.9501 126.874 35.0267C126.747 35.1083 126.608 35.1676 126.461 35.2018C126.301 35.2411 126.136 35.2606 125.971 35.2602C125.667 35.267 125.366 35.1993 125.094 35.0628Z" fill="white"/>
<path d="M130.711 33.6629H128.396C128.405 34.0287 128.503 34.3113 128.69 34.511C128.878 34.7106 129.136 34.81 129.465 34.8092C129.836 34.8087 130.196 34.6794 130.483 34.4433V34.9377C130.195 35.1474 129.814 35.2523 129.341 35.2523C128.877 35.2523 128.513 35.103 128.249 34.8045C127.984 34.5061 127.852 34.0866 127.852 33.5462C127.852 33.0349 127.996 32.6182 128.285 32.2959C128.418 32.1411 128.584 32.0176 128.77 31.934C128.956 31.8505 129.159 31.8091 129.363 31.8127C129.791 31.8127 130.123 31.9518 130.358 32.23C130.594 32.5083 130.711 32.8944 130.711 33.3886V33.6629ZM130.173 33.217C130.17 32.9127 130.097 32.6761 129.953 32.5073C129.809 32.3383 129.609 32.2539 129.353 32.2539C129.236 32.2519 129.119 32.2746 129.01 32.3204C128.901 32.3662 128.803 32.4342 128.722 32.5201C128.543 32.7114 128.431 32.956 128.402 33.217H130.173Z" fill="white"/>
<path d="M131.305 35.0628V34.4979C131.576 34.7049 131.908 34.8165 132.249 34.8153C132.71 34.8153 132.941 34.6613 132.941 34.3531C132.944 34.2747 132.923 34.1971 132.883 34.1302C132.84 34.0661 132.786 34.011 132.723 33.9679C132.649 33.917 132.569 33.8745 132.486 33.8413C132.395 33.8024 132.298 33.7634 132.195 33.7245C132.064 33.6734 131.936 33.6149 131.812 33.5494C131.711 33.4971 131.618 33.43 131.536 33.3504C131.464 33.2786 131.408 33.1928 131.37 33.0983C131.33 32.9927 131.31 32.8807 131.312 32.7679C131.309 32.6245 131.346 32.4833 131.418 32.3593C131.488 32.2401 131.584 32.1379 131.699 32.0605C131.822 31.9777 131.958 31.9165 132.101 31.879C132.253 31.8391 132.409 31.8195 132.567 31.8206C132.828 31.816 133.088 31.8663 133.329 31.9682V32.5011C133.081 32.3406 132.791 32.2579 132.496 32.2636C132.407 32.2624 132.317 32.2737 132.231 32.2974C132.158 32.3167 132.089 32.3488 132.027 32.392C131.973 32.43 131.928 32.4798 131.896 32.5379C131.865 32.5955 131.849 32.6603 131.85 32.7258C131.847 32.8003 131.863 32.874 131.896 32.9407C131.93 33.0015 131.976 33.054 132.032 33.0948C132.1 33.1442 132.173 33.1851 132.25 33.2167C132.335 33.2533 132.432 33.2922 132.541 33.3334C132.674 33.3836 132.804 33.4408 132.932 33.505C133.038 33.5581 133.137 33.625 133.226 33.704C133.305 33.7752 133.369 33.8621 133.413 33.9592C133.46 34.0677 133.482 34.185 133.479 34.303C133.483 34.4513 133.446 34.5978 133.372 34.7267C133.3 34.8468 133.202 34.949 133.085 35.0255C132.959 35.1071 132.819 35.1662 132.672 35.2007C132.512 35.2398 132.348 35.2595 132.182 35.259C131.878 35.2664 131.577 35.1991 131.305 35.0628Z" fill="white"/>
</g>
<g clip-path="url(#clip1_414_28051)">
<path d="M4.70451 14.946V14.8398L4.70979 14.7872L4.71687 14.6816C4.7304 14.616 4.73394 14.5476 4.75042 14.4856C4.77687 14.3646 4.81369 14.2461 4.8605 14.1314C4.90834 14.0235 4.96754 13.921 5.03709 13.8257C5.30786 13.4437 5.80234 13.1551 6.3074 13.1049C6.54401 13.0787 6.78346 13.1027 7.01025 13.1752C7.23564 13.2473 7.443 13.3671 7.61832 13.5264L7.69132 13.6037C7.71133 13.6273 7.72252 13.6391 7.7443 13.6627L7.77726 13.6958L7.84613 13.7767L7.99565 13.939L8.32589 14.3138L8.33413 14.305C7.50178 13.3015 4.03168 9.52781 2.07382 9.94632L1.9814 10.036C1.66139 10.3504 1.37475 10.6972 1.12609 11.0708C0.595385 11.8435 0.241968 12.7244 0.0912409 13.6503C0.0512127 13.8764 0.0323758 14.1019 0.013539 14.3268V14.3345C0.013539 14.3345 0 24.8787 0 30.4769C0 31.873 0.311396 32.939 0.778197 33.7465C4.20474 35.2257 8.12986 33.7465 8.12986 33.7465C8.05458 33.775 7.97749 33.7985 7.89911 33.8168C7.83318 33.8338 7.76666 33.8486 7.69956 33.8604C7.6231 33.8753 7.54587 33.8857 7.46822 33.8917C7.25274 33.915 7.0352 33.911 6.82071 33.8799C6.61436 33.8529 6.41186 33.8018 6.21734 33.7276C5.8491 33.5861 5.51211 33.3735 5.22545 33.1019C5.1666 33.0471 5.11774 32.9897 5.06711 32.9325C4.61797 32.3369 4.66683 31.1475 4.66683 31.1475L4.63151 18.9021C4.64917 17.878 4.66565 16.8532 4.68625 15.8285L4.70451 14.946Z" fill="white"/>
<path d="M5.00054 36.3177C5.29234 36.3471 5.58554 36.3605 5.87881 36.3578C6.26064 36.3634 6.64223 36.3367 7.01961 36.2781C7.38998 36.2132 7.74956 36.097 8.08801 35.9328C8.41952 35.7837 8.73509 35.601 9.02986 35.388C9.17467 35.2853 9.3138 35.1748 9.44662 35.0568C9.51961 34.9978 9.56436 34.9506 9.61851 34.8987L9.77863 34.7464L11.0636 33.5297L12.3417 32.3032C12.3924 32.2566 12.427 32.1949 12.4406 32.1273C12.4544 32.0596 12.4462 31.9894 12.4176 31.9266C12.3994 31.8881 12.3738 31.8537 12.3423 31.8252C12.3109 31.7967 12.274 31.7747 12.234 31.7606C12.194 31.7464 12.1516 31.7403 12.1093 31.7427C12.0669 31.7451 12.0254 31.7557 11.9873 31.7742L11.1814 32.1627L10.3961 32.5724L8.83384 33.407L8.63841 33.5109C8.57483 33.5434 8.50184 33.5859 8.4518 33.6048C8.34548 33.6553 8.23641 33.6999 8.1251 33.7381C8.1251 33.7381 4.19998 35.2175 0.773438 33.7381C2.18149 36.1766 5.00054 36.3177 5.00054 36.3177Z" fill="white"/>
<path d="M2.7666 9.71191C4.04173 8.77183 5.62094 8.33479 7.20117 8.49219C8.04147 8.57601 8.85478 8.83616 9.58887 9.25488L9.59277 9.25684C9.77437 9.35653 9.93789 9.47205 10.1299 9.59668C10.3054 9.73127 10.4618 9.84246 10.6045 9.97266L10.6104 9.97754C10.7641 10.11 10.9114 10.2499 11.0508 10.3975V10.3984L11.2646 10.6279L11.3945 10.7754V10.7764L13.5508 13.2383V13.2393L15.6895 15.7178C16.4118 16.559 17.1305 17.4038 17.8467 18.251L17.8535 18.2588L17.8838 18.2891C20.9953 21.761 24.0413 25.2881 27.083 28.8262L28.2207 30.1572L28.4648 30.4424V30.4434C28.8872 30.9488 29.7605 31.9327 30.8945 32.8389C31.8925 33.6363 33.1122 34.3884 34.4199 34.6865C33.5106 35.4216 32.4163 35.8971 31.2529 36.0566H31.251C30.3627 36.187 29.456 36.1197 28.5967 35.8594C27.8448 35.6316 27.1448 35.2608 26.5342 34.7686L26.2783 34.5508C26.1906 34.4714 26.1101 34.4008 26.0332 34.3252L25.8057 34.084H25.8066L25.6885 33.958L25.6201 33.8789L25.4785 33.7139V33.7129L24.9072 33.0488L23.7646 31.7188H23.7637C21.3527 28.8936 18.9485 26.0634 16.5762 23.207L16.5674 23.1973C15.8702 22.4364 15.1761 21.6725 14.4844 20.9062L12.417 18.5996L10.2461 16.1465L8.42676 14.0576L7.93652 13.5107C7.35787 12.8812 6.5337 12.0385 5.64551 11.3057C5.05374 10.8174 4.42547 10.371 3.81543 10.0703C3.46635 9.89822 3.11163 9.77 2.7666 9.71191Z" fill="white" stroke="black" stroke-width="0.5"/>
<path d="M36.1491 10.8137C32.9957 9.45249 29.4214 10.5965 28.8711 10.7877C28.9229 10.7712 28.9759 10.757 29.0282 10.7434C29.0941 10.7263 29.1607 10.7116 29.2278 10.6998C29.3041 10.6849 29.3815 10.6746 29.4591 10.6691C29.6745 10.6454 29.8921 10.6492 30.1066 10.6803C30.3127 10.7074 30.5151 10.7585 30.7094 10.8326C31.0777 10.9741 31.4146 11.1867 31.7013 11.4583C31.7601 11.5132 31.8091 11.5704 31.8602 11.6277C32.3087 12.2233 32.2599 13.4127 32.2599 13.4127L32.2952 25.6582C32.2775 26.6823 32.2611 27.707 32.2405 28.7317L32.2246 29.6142V29.7205L32.2193 29.7729L32.2123 29.8786C32.1987 29.9448 32.1951 30.0127 32.1787 30.0746C32.1522 30.1956 32.1154 30.3142 32.0687 30.4288C32.0208 30.5368 31.9616 30.6393 31.892 30.7345C31.6212 31.1165 31.1238 31.4051 30.6217 31.4553C30.3851 31.4815 30.1456 31.4576 29.9188 31.385C29.6958 31.3117 29.4912 31.1908 29.319 31.0309L29.2484 30.9671C29.2484 30.9671 32.1369 34.2207 34.9806 34.5289C35.3015 34.2131 35.5499 33.8642 35.8047 33.4899C36.3352 32.7174 36.6886 31.8367 36.8396 30.911C36.8803 30.685 36.8984 30.4595 36.9173 30.2346V30.2269C36.9173 30.2269 36.9302 19.6827 36.9302 14.0844C36.9274 12.6878 36.6148 11.6253 36.1491 10.8137Z" fill="white"/>
<path d="M28.8043 10.8121C28.8243 10.8044 28.8443 10.7974 28.8631 10.7909C29.4124 10.5996 32.9879 9.45506 36.1418 10.8163C34.7355 8.3778 31.9159 8.23613 31.9159 8.23613C31.6241 8.20665 31.3309 8.19325 31.0376 8.19599C30.6564 8.19062 30.2753 8.21727 29.8986 8.27568C29.5282 8.3406 29.1687 8.45681 28.8302 8.62099C28.4987 8.77034 28.1832 8.95288 27.8884 9.16582C27.7436 9.26869 27.6045 9.37923 27.4715 9.49697C27.3986 9.556 27.3538 9.60322 27.2997 9.65517L27.1396 9.80746L25.8545 11.024L24.5766 12.2506C24.5272 12.2982 24.4941 12.3601 24.4818 12.4276C24.4696 12.4951 24.4789 12.5647 24.5083 12.6266C24.5265 12.6651 24.5521 12.6996 24.5836 12.7281C24.6152 12.7566 24.6521 12.7786 24.6922 12.7927C24.7322 12.8069 24.7747 12.8129 24.817 12.8106C24.8595 12.8082 24.9009 12.7975 24.9392 12.7789L25.7403 12.3894L26.5209 11.9821L28.0832 11.148L28.2792 11.0441C28.3422 11.011 28.4152 10.9685 28.4652 10.9497C28.5717 10.899 28.6809 10.8544 28.7925 10.8163C28.7925 10.8163 28.8172 10.8068 28.8655 10.7903L28.8043 10.8121Z" fill="white"/>
<path d="M28.8678 10.7891C28.8471 10.7956 28.8269 10.8027 28.8086 10.8105L28.8678 10.7891Z" fill="white"/>
<path d="M28.8678 10.7891C28.8471 10.7956 28.8269 10.8027 28.8086 10.8105L28.8678 10.7891Z" fill="white"/>
<path d="M36.1497 10.8136C32.9957 9.45246 29.4203 10.597 28.8711 10.7883C29.4221 10.5964 32.9963 9.45246 36.1497 10.8136Z" fill="white"/>
<path d="M36.1497 10.8136C32.9957 9.45246 29.4203 10.597 28.8711 10.7883C29.4221 10.5964 32.9963 9.45246 36.1497 10.8136Z" fill="white"/>
</g>
<g clip-path="url(#clip2_414_28051)">
<path fill-rule="evenodd" clip-rule="evenodd" d="M43.7414 4.69335V4.68744C43.7339 4.63141 43.7066 4.57992 43.6645 4.54234C43.6224 4.50476 43.5682 4.48358 43.5118 4.48267C40.8425 4.20707 39.0894 2.92412 38.3791 0.195925C38.3709 0.145849 38.3469 0.0997487 38.3105 0.0644577C38.2742 0.0291668 38.2275 0.00656389 38.1773 0H38.1555H38.122H38.112L38.0949 0.00354081H38.0902C38.0393 0.0167155 37.9943 0.0465915 37.9623 0.0884087C37.9303 0.130226 37.9132 0.181578 37.9136 0.234284C37.7041 3.04451 36.2112 4.62194 33.6372 5.37554C33.5832 5.38572 33.5346 5.41446 33.4995 5.45682C33.4645 5.49916 33.4453 5.55244 33.4453 5.60747V5.62281C33.4453 5.62281 33.4453 5.6293 33.4453 5.63284V5.63875C33.4528 5.69468 33.4799 5.74609 33.5219 5.78366C33.5639 5.82123 33.618 5.84246 33.6742 5.84352C36.3436 6.12029 38.0967 7.40207 38.807 10.1303C38.8157 10.1795 38.8399 10.2247 38.876 10.2593C38.9121 10.2939 38.9582 10.316 39.0076 10.3226H39.0276H39.05H39.0618H39.0718L39.0882 10.3197H39.0935L39.1147 10.3132C39.1608 10.2968 39.2007 10.2663 39.2287 10.2262C39.2568 10.186 39.2716 10.138 39.2713 10.0889C39.4814 7.27873 40.9779 5.70248 43.5489 4.94769C43.6029 4.9375 43.6517 4.90866 43.6867 4.86619C43.7218 4.82373 43.7409 4.7703 43.7408 4.71518C43.7408 4.71046 43.7408 4.70515 43.7408 4.70043C43.7408 4.69571 43.7408 4.69453 43.7408 4.69157L43.7414 4.69335Z" fill="white"/>
</g>
<defs>
<clipPath id="clip0_414_28051">
<rect width="88.4258" height="26.3331" fill="white" transform="translate(45.0547 10.3906)"/>
</clipPath>
<clipPath id="clip1_414_28051">
<rect width="36.9274" height="28.1744" fill="white" transform="translate(0 8.19531)"/>
</clipPath>
<clipPath id="clip2_414_28051">
<rect width="10.296" height="10.3226" fill="white" transform="translate(33.4453)"/>
</clipPath>
</defs>
</svg>
