<svg preserveAspectRatio="none" overflow="visible" style="display: block;" width="16" height="16" viewBox="0 0 16 16" fill="none" xmlns="http://www.w3.org/2000/svg">
<g id="Truck" clip-path="url(#clip0_1954_18965)">
<g id="Vector">
</g>
<path id="Vector_2" opacity="0.2" d="M11.5 7.5V9H1.5V11.5C1.5 11.6326 1.55268 11.7598 1.64645 11.8536C1.74021 11.9473 1.86739 12 2 12H3.5C3.5 11.6022 3.65804 11.2206 3.93934 10.9393C4.22064 10.658 4.60218 10.5 5 10.5C5.39782 10.5 5.77936 10.658 6.06066 10.9393C6.34196 11.2206 6.5 11.6022 6.5 12H10.5C10.5 11.6022 10.658 11.2206 10.9393 10.9393C11.2206 10.658 11.6022 10.5 12 10.5C12.3978 10.5 12.7794 10.658 13.0607 10.9393C13.342 11.2206 13.5 11.6022 13.5 12H15C15.1326 12 15.2598 11.9473 15.3536 11.8536C15.4473 11.7598 15.5 11.6326 15.5 11.5V7.5H11.5Z" fill="#18181B"/>
<path id="Vector_3" d="M11.5 5H14.1613C14.2609 4.99995 14.3583 5.02968 14.4409 5.08536C14.5235 5.14104 14.5876 5.22013 14.625 5.3125L15.5 7.5" stroke="#18181B" stroke-linecap="round" stroke-linejoin="round"/>
<path id="Vector_4" d="M1.5 9H11.5" stroke="#18181B" stroke-linecap="round" stroke-linejoin="round"/>
<path id="Vector_5" d="M12 13.5C12.8284 13.5 13.5 12.8284 13.5 12C13.5 11.1716 12.8284 10.5 12 10.5C11.1716 10.5 10.5 11.1716 10.5 12C10.5 12.8284 11.1716 13.5 12 13.5Z" stroke="#18181B" stroke-linecap="round" stroke-linejoin="round"/>
<path id="Vector_6" d="M5 13.5C5.82843 13.5 6.5 12.8284 6.5 12C6.5 11.1716 5.82843 10.5 5 10.5C4.17157 10.5 3.5 11.1716 3.5 12C3.5 12.8284 4.17157 13.5 5 13.5Z" stroke="#18181B" stroke-linecap="round" stroke-linejoin="round"/>
<path id="Vector_7" d="M10.5 12H6.5" stroke="#18181B" stroke-linecap="round" stroke-linejoin="round"/>
<path id="Vector_8" d="M11.5 7.5H15.5V11.5C15.5 11.6326 15.4473 11.7598 15.3536 11.8536C15.2598 11.9473 15.1326 12 15 12H13.5" stroke="#18181B" stroke-linecap="round" stroke-linejoin="round"/>
<path id="Vector_9" d="M3.5 12H2C1.86739 12 1.74021 11.9473 1.64645 11.8536C1.55268 11.7598 1.5 11.6326 1.5 11.5V4.5C1.5 4.36739 1.55268 4.24021 1.64645 4.14645C1.74021 4.05268 1.86739 4 2 4H11.5V10.5856" stroke="#18181B" stroke-linecap="round" stroke-linejoin="round"/>
</g>
<defs>
<clipPath id="clip0_1954_18965">
<rect width="16" height="16" fill="white"/>
</clipPath>
</defs>
</svg>
