<svg preserveAspectRatio="none" overflow="visible" style="display: block;" width="92.4805" height="37.2861" viewBox="0 0 92.4805 37.2861" fill="none" xmlns="http://www.w3.org/2000/svg">
<path id="Union" d="M4.00781 37.2861H0V33.2783H4.00781V37.2861ZM9.53516 37.2861H5.52734V33.2783H9.53516V37.2861ZM15.0664 37.2861H11.0586V33.2783H15.0664V37.2861ZM20.5977 37.2861H16.5898V33.2783H20.5977V37.2861ZM26.125 37.2861H22.1172V33.2783H26.125V37.2861ZM31.6523 37.2861H27.6445V33.2783H31.6523V37.2861ZM42.7148 37.2861H38.707V33.2783H42.7148V37.2861ZM48.2461 37.2861H44.2383V33.2783H48.2461V37.2861ZM53.7734 37.2861H49.7656V33.2783H53.7734V37.2861ZM59.3047 37.2861H55.2969V33.2783H59.3047V37.2861ZM64.832 37.2861H60.8242V33.2783H64.832V37.2861ZM70.3633 37.2861H66.3555V33.2783H70.3633V37.2861ZM75.8945 37.2861H71.8867V33.2783H75.8945V37.2861ZM86.9531 37.2861H82.9453V33.2783H86.9531V37.2861ZM92.4805 37.2861H88.4727V33.2783H92.4805V37.2861ZM37.1836 37.2852H33.1758V33.2783H37.1836V37.2852ZM81.4219 37.2852H77.4141V33.2783H81.4219V37.2852ZM4.00781 31.7393H0V27.7324H4.00781V31.7393ZM9.53516 31.7393H5.52734V27.7324H9.53516V31.7393ZM15.0664 31.7393H11.0586V27.7324H15.0664V31.7393ZM20.5977 31.7393H16.5898V27.7324H20.5977V31.7393ZM26.125 31.7393H22.1172V27.7324H26.125V31.7393ZM31.6523 31.7393H27.6445V27.7324H31.6523V31.7393ZM37.1836 31.7393H33.1758V27.7314H37.1836V31.7393ZM42.7148 31.7393H38.707V27.7324H42.7148V31.7393ZM48.2461 31.7393H44.2383V27.7324H48.2461V31.7393ZM53.7734 31.7393H49.7656V27.7324H53.7734V31.7393ZM59.3047 31.7393H55.2969V27.7324H59.3047V31.7393ZM64.832 31.7393H60.8242V27.7324H64.832V31.7393ZM70.3633 31.7393H66.3555V27.7324H70.3633V31.7393ZM75.8945 31.7393H71.8867V27.7324H75.8945V31.7393ZM81.4219 31.7393H77.4141V27.7314H81.4219V31.7393ZM86.9531 31.7393H82.9453V27.7324H86.9531V31.7393ZM92.4805 31.7393H88.4727V27.7324H92.4805V31.7393ZM4.00781 26.1934H0V22.1855H4.00781V26.1934ZM9.53516 26.1934H5.52734V22.1855H9.53516V26.1934ZM15.0664 26.1934H11.0586V22.1855H15.0664V26.1934ZM20.5977 26.1934H16.5898V22.1855H20.5977V26.1934ZM26.125 26.1934H22.1172V22.1855H26.125V26.1934ZM31.6523 26.1934H27.6445V22.1855H31.6523V26.1934ZM37.1836 26.1934H33.1758V22.1855H37.1836V26.1934ZM42.7148 26.1934H38.707V22.1855H42.7148V26.1934ZM48.2461 26.1934H44.2383V22.1855H48.2461V26.1934ZM53.7734 26.1934H49.7656V22.1855H53.7734V26.1934ZM59.3047 26.1934H55.2969V22.1855H59.3047V26.1934ZM64.832 26.1934H60.8242V22.1855H64.832V26.1934ZM70.3633 26.1934H66.3555V22.1855H70.3633V26.1934ZM75.8945 26.1934H71.8867V22.1855H75.8945V26.1934ZM81.4219 26.1934H77.4141V22.1855H81.4219V26.1934ZM86.9531 26.1934H82.9453V22.1855H86.9531V26.1934ZM92.4805 26.1934H88.4727V22.1855H92.4805V26.1934ZM4.00781 20.6475H0V16.6396H4.00781V20.6475ZM9.53516 20.6475H5.52734V16.6396H9.53516V20.6475ZM15.0664 20.6475H11.0586V16.6396H15.0664V20.6475ZM20.5977 20.6475H16.5898V16.6396H20.5977V20.6475ZM26.125 20.6475H22.1172V16.6396H26.125V20.6475ZM31.6523 20.6475H27.6445V16.6396H31.6523V20.6475ZM37.1836 20.6475H33.1758V16.6396H37.1836V20.6475ZM42.7148 20.6475H38.707V16.6396H42.7148V20.6475ZM48.2461 20.6475H44.2383V16.6396H48.2461V20.6475ZM53.7734 20.6475H49.7656V16.6396H53.7734V20.6475ZM59.3047 20.6475H55.2969V16.6396H59.3047V20.6475ZM64.832 20.6475H60.8242V16.6396H64.832V20.6475ZM70.3633 20.6475H66.3555V16.6396H70.3633V20.6475ZM75.8945 20.6475H71.8867V16.6396H75.8945V20.6475ZM81.4219 20.6475H77.4141V16.6396H81.4219V20.6475ZM86.9531 20.6475H82.9453V16.6396H86.9531V20.6475ZM92.4805 20.6475H88.4727V16.6396H92.4805V20.6475ZM4.00781 15.1016H0V11.0938H4.00781V15.1016ZM9.53516 15.1016H5.52734V11.0938H9.53516V15.1016ZM15.0664 15.1016H11.0586V11.0938H15.0664V15.1016ZM20.5977 15.1016H16.5898V11.0938H20.5977V15.1016ZM26.125 15.1016H22.1172V11.0938H26.125V15.1016ZM31.6523 15.1016H27.6445V11.0938H31.6523V15.1016ZM42.7148 15.1016H38.707V11.0938H42.7148V15.1016ZM48.2461 15.1016H44.2383V11.0938H48.2461V15.1016ZM53.7734 15.1016H49.7656V11.0938H53.7734V15.1016ZM59.3047 15.1016H55.2969V11.0938H59.3047V15.1016ZM64.832 15.1016H60.8242V11.0938H64.832V15.1016ZM70.3633 15.1016H66.3555V11.0938H70.3633V15.1016ZM75.8945 15.1016H71.8867V11.0938H75.8945V15.1016ZM86.9531 15.1016H82.9453V11.0938H86.9531V15.1016ZM92.4805 15.1016H88.4727V11.0938H92.4805V15.1016ZM37.1836 15.1006H33.1758V11.0938H37.1836V15.1006ZM81.4219 15.1006H77.4141V11.0938H81.4219V15.1006ZM4.00781 9.55469H0V5.54785H4.00781V9.55469ZM9.53516 9.55469H5.52734V5.54785H9.53516V9.55469ZM15.0664 9.55469H11.0586V5.54785H15.0664V9.55469ZM20.5977 9.55469H16.5898V5.54785H20.5977V9.55469ZM26.125 9.55469H22.1172V5.54785H26.125V9.55469ZM31.6523 9.55469H27.6445V5.54785H31.6523V9.55469ZM37.1836 9.55469H33.1758V5.54688H37.1836V9.55469ZM42.7148 9.55469H38.707V5.54785H42.7148V9.55469ZM48.2461 9.55469H44.2383V5.54785H48.2461V9.55469ZM53.7734 9.55469H49.7656V5.54785H53.7734V9.55469ZM59.3047 9.55469H55.2969V5.54785H59.3047V9.55469ZM64.832 9.55469H60.8242V5.54785H64.832V9.55469ZM70.3633 9.55469H66.3555V5.54785H70.3633V9.55469ZM75.8945 9.55469H71.8867V5.54785H75.8945V9.55469ZM81.4219 9.55469H77.4141V5.54688H81.4219V9.55469ZM86.9531 9.55469H82.9453V5.54785H86.9531V9.55469ZM92.4805 9.55469H88.4727V5.54785H92.4805V9.55469ZM42.7148 4.00879H38.707V0.000976562H42.7148V4.00879ZM48.2461 4.00879H44.2383V0.000976562H48.2461V4.00879ZM53.7734 4.00879H49.7656V0.000976562H53.7734V4.00879ZM59.3047 4.00879H55.2969V0.000976562H59.3047V4.00879ZM64.832 4.00879H60.8242V0.000976562H64.832V4.00879ZM70.3633 4.00879H66.3555V0.000976562H70.3633V4.00879ZM75.8945 4.00879H71.8867V0.000976562H75.8945V4.00879ZM86.9531 4.00879H82.9453V0.000976562H86.9531V4.00879ZM92.4805 4.00879H88.4727V0.000976562H92.4805V4.00879ZM4.00781 4.00781H0V0.000976562H4.00781V4.00781ZM9.53516 4.00781H5.52734V0.000976562H9.53516V4.00781ZM15.0664 4.00781H11.0586V0.000976562H15.0664V4.00781ZM20.5977 4.00781H16.5898V0.000976562H20.5977V4.00781ZM26.125 4.00781H22.1172V0.000976562H26.125V4.00781ZM31.6523 4.00781H27.6445V0.000976562H31.6523V4.00781ZM37.1836 4.00781H33.1758V0H37.1836V4.00781ZM81.4219 4.00781H77.4141V0.000976562H81.4219V4.00781Z" fill="url(#paint0_linear_1954_18999)"/>
<defs>
<linearGradient id="paint0_linear_1954_18999" x1="92.4805" y1="18.6431" x2="1.6297e-06" y2="18.6431" gradientUnits="userSpaceOnUse">
<stop stop-color="#F0F0F0"/>
<stop offset="1" stop-color="#F2F2F2" stop-opacity="0"/>
</linearGradient>
</defs>
</svg>
