<svg preserveAspectRatio="none" overflow="visible" style="display: block;" width="5.75" height="6.99993" viewBox="0 0 5.75 6.99993" fill="none" xmlns="http://www.w3.org/2000/svg">
<path id="Vector" d="M4.25 4.74993C4.25 4.84939 4.21049 4.94477 4.14016 5.0151C4.06984 5.08542 3.97446 5.12493 3.875 5.12493H1.875C1.77554 5.12493 1.68016 5.08542 1.60983 5.0151C1.53951 4.94477 1.5 4.84939 1.5 4.74993C1.5 4.65047 1.53951 4.55509 1.60983 4.48477C1.68016 4.41444 1.77554 4.37493 1.875 4.37493H3.875C3.97446 4.37493 4.06984 4.41444 4.14016 4.48477C4.21049 4.55509 4.25 4.65047 4.25 4.74993ZM3.875 3.12493H1.875C1.77554 3.12493 1.68016 3.16444 1.60983 3.23477C1.53951 3.30509 1.5 3.40047 1.5 3.49993C1.5 3.59939 1.53951 3.69477 1.60983 3.7651C1.68016 3.83542 1.77554 3.87493 1.875 3.87493H3.875C3.97446 3.87493 4.06984 3.83542 4.14016 3.7651C4.21049 3.69477 4.25 3.59939 4.25 3.49993C4.25 3.40047 4.21049 3.30509 4.14016 3.23477C4.06984 3.16444 3.97446 3.12493 3.875 3.12493ZM5.75 1.12493V6.37493C5.75 6.54069 5.68415 6.69966 5.56694 6.81687C5.44973 6.93408 5.29076 6.99993 5.125 6.99993H0.625C0.45924 6.99993 0.300269 6.93408 0.183058 6.81687C0.065848 6.69966 0 6.54069 0 6.37493V1.12493C0 0.95917 0.065848 0.800199 0.183058 0.682989C0.300269 0.565779 0.45924 0.499931 0.625 0.499931H1.70406C1.8554 0.341895 2.03716 0.21613 2.2384 0.130212C2.43964 0.0442933 2.65619 0 2.875 0C3.09381 0 3.31036 0.0442933 3.5116 0.130212C3.71284 0.21613 3.8946 0.341895 4.04594 0.499931H5.125C5.29076 0.499931 5.44973 0.565779 5.56694 0.682989C5.68415 0.800199 5.75 0.95917 5.75 1.12493ZM2.00906 1.49993H3.74094C3.71075 1.29181 3.60661 1.10152 3.44759 0.963899C3.28857 0.82628 3.0853 0.750538 2.875 0.750538C2.6647 0.750538 2.46143 0.82628 2.30241 0.963899C2.14339 1.10152 2.03925 1.29181 2.00906 1.49993ZM5 1.24993H4.45594C4.48511 1.3728 4.4999 1.49865 4.5 1.62493V1.87493C4.5 1.97439 4.46049 2.06977 4.39016 2.1401C4.31984 2.21042 4.22446 2.24993 4.125 2.24993H1.625C1.52554 2.24993 1.43016 2.21042 1.35983 2.1401C1.28951 2.06977 1.25 1.97439 1.25 1.87493V1.62493C1.2501 1.49865 1.26489 1.3728 1.29406 1.24993H0.75V6.24993H5V1.24993Z" fill="#343330"/>
</svg>
